<svg xmlns="http://www.w3.org/2000/svg" width="640" height="400" viewBox="0 0 640 400" role="img" aria-label="zhane waterfalls thumbnail">
  <defs>
    <linearGradient id="sky" x1="0" x2="1" y1="0" y2="1">
      <stop offset="0" stop-color="#ccebd9"/>
      <stop offset="1" stop-color="#f7fbfb"/>
    </linearGradient>
  </defs>
  <rect width="640" height="400" fill="url(#sky)"/>
  <ellipse cx="112" cy="78" rx="44" ry="16" fill="#f7fbfb" opacity=".72"/><ellipse cx="164" cy="66" rx="58" ry="18" fill="#f7fbfb" opacity=".54"/><path d="M0 250 C130 190 235 210 360 164 C480 120 560 132 640 102 V400 H0Z" fill="#17493f"/><path d="M0 310 C180 246 330 274 640 198 V400 H0Z" fill="#4f9a69"/><path d="M338 104 C320 164 296 222 302 340 L366 340 C356 250 388 176 402 116Z" fill="#f7fbfb" opacity=".9"/><path d="M314 340 C352 318 384 318 422 340 V400 H282Z" fill="#dff3f4" opacity=".95"/>
</svg>
